<svg id="eBbrh9RPO541" xmlns="http://www.w3.org/2000/svg" xmlns:xlink="http://www.w3.org/1999/xlink" viewBox="0 0 282 153" shape-rendering="geometricPrecision" text-rendering="geometricPrecision" project-id="8d07cec157904d008249e4fc77e36a11" export-id="bceb6a3c2e43422aac9643c8de967833" cached="false"><path d="M22.332457,98.006607c14.1715,12.378863,28.456846,31.192126,50.06861,31.342463c13.688417.64148,25.786816-9.414398,28.514864-28.01166.507484-5.052553,1.25186-9.766967.335469-17.108919-.979779-5.90537-1.791932-6.984033-3.522424-11.405945-4.253838-9.694599,5.847064-14.992406,17.189617-12.442622c13.515072,3.226379,14.584258,4.642199,33.900366,11.400752c16.392181,5.415126,20.587137,5.488421,33.517632,7.278115s33.353636,2.457003,36.869396-12.449407c1.423587-8.299867.96833-10.982453.574588-16.567286-1.149729-12.133485,15.982689-14.921676,26.196441-12.207357c11.820413,3.37565,25.834234,14.791693,30.607653,21.564483" transform="translate(0.000002 0.000002)" fill="none" stroke="#74aafd" stroke-width="4" stroke-linecap="round"/></svg>
